<?xml version="1.0" encoding="UTF-8" standalone="no"?>
<svg
   xmlns:dc="http://purl.org/dc/elements/1.1/"
   xmlns:cc="http://creativecommons.org/ns#"
   xmlns:rdf="http://www.w3.org/1999/02/22-rdf-syntax-ns#"
   xmlns:svg="http://www.w3.org/2000/svg"
   xmlns="http://www.w3.org/2000/svg"
   xmlns:sodipodi="http://sodipodi.sourceforge.net/DTD/sodipodi-0.dtd"
   xmlns:inkscape="http://www.inkscape.org/namespaces/inkscape"
   sodipodi:docname="facebook.svg"
   width="34.308167"
   height="34.308281"
   viewBox="0 0 9.0773689 9.0773997"
   version="1.1"
   id="svg8"
   inkscape:version="1.0 (4035a4fb49, 2020-05-01)">
  <defs
     id="defs2" />
  <sodipodi:namedview
     inkscape:window-maximized="1"
     inkscape:window-y="-9"
     inkscape:window-x="-9"
     inkscape:window-height="1001"
     inkscape:window-width="1920"
     fit-margin-bottom="0"
     fit-margin-right="0"
     fit-margin-left="0"
     fit-margin-top="0"
     id="base"
     pagecolor="#ffffff"
     bordercolor="#666666"
     borderopacity="1.0"
     inkscape:pageopacity="0.0"
     inkscape:pageshadow="2"
     inkscape:zoom="0.35"
     inkscape:cx="94.308166"
     inkscape:cy="28.593988"
     inkscape:document-units="px"
     inkscape:current-layer="layer1"
     inkscape:document-rotation="0"
     showgrid="false"
     units="px"
     inkscape:showpageshadow="false" />
  <metadata
     id="metadata5">
    <rdf:RDF>
      <cc:Work
         rdf:about="">
        <dc:format>image/svg+xml</dc:format>
        <dc:type
           rdf:resource="http://purl.org/dc/dcmitype/StillImage" />
        <dc:title></dc:title>
      </cc:Work>
    </rdf:RDF>
  </metadata>
  <g
     transform="translate(-54.422632,-140.60117)"
     inkscape:label="Layer 1"
     inkscape:groupmode="layer"
     id="layer1">
    <g
       transform="matrix(0.03548693,0,0,0.03548693,72.925894,130.77588)"
       id="g1282"
       style="fill:#ffffff"
       inkscape:export-xdpi="96"
       inkscape:export-ydpi="96">
      <g
         id="g1278"
         transform="matrix(0.3147833,0,0,0.3147833,-474.09779,324.18402)"
         style="fill:#ffffff">
        <g
           id="g1246"
           style="fill:#ffffff">
          <g
             id="g1244"
             style="fill:#ffffff">
            <path
               id="path1242"
               d="m 288,176 v -64 c 0,-17.664 14.336,-32 32,-32 h 32 V 0 h -64 c -53.024,0 -96,42.976 -96,96 v 80 h -64 v 80 h 64 v 256 h 96 V 256 h 64 l 32,-80 z"
               inkscape:connector-curvature="0"
               style="fill:#ffffff" />
          </g>
        </g>
        <g
           id="g1248"
           style="fill:#ffffff" />
        <g
           id="g1250"
           style="fill:#ffffff" />
        <g
           id="g1252"
           style="fill:#ffffff" />
        <g
           id="g1254"
           style="fill:#ffffff" />
        <g
           id="g1256"
           style="fill:#ffffff" />
        <g
           id="g1258"
           style="fill:#ffffff" />
        <g
           id="g1260"
           style="fill:#ffffff" />
        <g
           id="g1262"
           style="fill:#ffffff" />
        <g
           id="g1264"
           style="fill:#ffffff" />
        <g
           id="g1266"
           style="fill:#ffffff" />
        <g
           id="g1268"
           style="fill:#ffffff" />
        <g
           id="g1270"
           style="fill:#ffffff" />
        <g
           id="g1272"
           style="fill:#ffffff" />
        <g
           id="g1274"
           style="fill:#ffffff" />
        <g
           id="g1276"
           style="fill:#ffffff" />
      </g>
      <path
         style="fill:#ffffff;stroke-width:0.413765"
         d="m -393.51286,276.87076 a 127.89745,127.89745 0 0 0 -127.89776,127.89776 127.89745,127.89745 0 0 0 127.89776,127.8978 127.89745,127.89745 0 0 0 127.89695,-127.8978 127.89745,127.89745 0 0 0 -127.89695,-127.89776 z m 0,12.53902 a 115.35849,115.35849 0 0 1 11.51591,0.57621 115.35849,115.35849 0 0 1 11.40197,1.72374 115.35849,115.35849 0 0 1 11.17246,2.8527 115.35849,115.35849 0 0 1 10.83224,3.95423 115.35849,115.35849 0 0 1 10.3829,5.01528 115.35849,115.35849 0 0 1 9.83015,6.02707 115.35849,115.35849 0 0 1 9.1796,6.97823 115.35849,115.35849 0 0 1 8.43773,7.85991 115.35849,115.35849 0 0 1 7.6102,8.6632 115.35849,115.35849 0 0 1 6.70751,9.38001 115.35849,115.35849 0 0 1 5.73695,10.00226 115.35849,115.35849 0 0 1 4.71062,10.52515 115.35849,115.35849 0 0 1 3.63579,10.94217 115.35849,115.35849 0 0 1 2.52542,11.25163 115.35849,115.35849 0 0 1 1.38999,11.44643 115.35849,115.35849 0 0 1 0.28851,8.16052 115.35849,115.35849 0 0 1 -0.5762,11.51673 115.35849,115.35849 0 0 1 -1.72294,11.40116 115.35849,115.35849 0 0 1 -2.85272,11.17326 115.35849,115.35849 0 0 1 -3.9542,10.83141 115.35849,115.35849 0 0 1 -5.01608,10.38293 115.35849,115.35849 0 0 1 -6.02708,9.83097 115.35849,115.35849 0 0 1 -6.97824,9.17958 115.35849,115.35849 0 0 1 -7.8599,8.43691 115.35849,115.35849 0 0 1 -8.66321,7.61022 115.35849,115.35849 0 0 1 -9.37921,6.70749 115.35849,115.35849 0 0 1 -10.00228,5.73777 115.35849,115.35849 0 0 1 -10.52514,4.70979 115.35849,115.35849 0 0 1 -10.94294,3.63662 115.35849,115.35849 0 0 1 -11.25085,2.52542 115.35849,115.35849 0 0 1 -11.44723,1.38917 115.35849,115.35849 0 0 1 -8.15973,0.28935 115.35849,115.35849 0 0 1 -11.51672,-0.57621 115.35849,115.35849 0 0 1 -11.40197,-1.72374 115.35849,115.35849 0 0 1 -11.17246,-2.85275 115.35849,115.35849 0 0 1 -10.83223,-3.95418 115.35849,115.35849 0 0 1 -10.38291,-5.01528 115.35849,115.35849 0 0 1 -9.83014,-6.02707 115.35849,115.35849 0 0 1 -9.1796,-6.97823 115.35849,115.35849 0 0 1 -8.43773,-7.85991 115.35849,115.35849 0 0 1 -7.6102,-8.6632 115.35849,115.35849 0 0 1 -6.70752,-9.38001 115.35849,115.35849 0 0 1 -5.73695,-10.00231 115.35849,115.35849 0 0 1 -4.71061,-10.52514 115.35849,115.35849 0 0 1 -3.63579,-10.94213 115.35849,115.35849 0 0 1 -2.52543,-11.25163 115.35849,115.35849 0 0 1 -1.38999,-11.44726 115.35849,115.35849 0 0 1 -0.2885,-8.15973 115.35849,115.35849 0 0 1 0.5762,-11.51673 115.35849,115.35849 0 0 1 1.72294,-11.40112 115.35849,115.35849 0 0 1 2.85271,-11.17327 115.35849,115.35849 0 0 1 3.95421,-10.83145 115.35849,115.35849 0 0 1 5.01609,-10.38289 115.35849,115.35849 0 0 1 6.02706,-9.83097 115.35849,115.35849 0 0 1 6.97824,-9.17957 115.35849,115.35849 0 0 1 7.85992,-8.43696 115.35849,115.35849 0 0 1 8.6632,-7.61017 115.35849,115.35849 0 0 1 9.3792,-6.70754 115.35849,115.35849 0 0 1 10.00228,-5.73775 115.35849,115.35849 0 0 1 10.52514,-4.71059 115.35849,115.35849 0 0 1 10.94295,-3.63579 115.35849,115.35849 0 0 1 11.25085,-2.52547 115.35849,115.35849 0 0 1 11.44722,-1.38917 115.35849,115.35849 0 0 1 8.16054,-0.2893 z"
         id="path1280"
         inkscape:connector-curvature="0" />
    </g>
  </g>
</svg>
