<?xml version="1.0" encoding="UTF-8" standalone="no"?>
<svg
   xmlns:dc="http://purl.org/dc/elements/1.1/"
   xmlns:cc="http://creativecommons.org/ns#"
   xmlns:rdf="http://www.w3.org/1999/02/22-rdf-syntax-ns#"
   xmlns:svg="http://www.w3.org/2000/svg"
   xmlns="http://www.w3.org/2000/svg"
   xmlns:sodipodi="http://sodipodi.sourceforge.net/DTD/sodipodi-0.dtd"
   xmlns:inkscape="http://www.inkscape.org/namespaces/inkscape"
   sodipodi:docname="twitter.svg"
   width="34.308167"
   height="34.308281"
   viewBox="0 0 9.0773689 9.0773997"
   version="1.1"
   id="svg8"
   inkscape:version="1.0 (4035a4fb49, 2020-05-01)">
  <defs
     id="defs2" />
  <sodipodi:namedview
     inkscape:window-maximized="1"
     inkscape:window-y="-9"
     inkscape:window-x="-9"
     inkscape:window-height="1001"
     inkscape:window-width="1920"
     fit-margin-bottom="0"
     fit-margin-right="0"
     fit-margin-left="0"
     fit-margin-top="0"
     id="base"
     pagecolor="#ffffff"
     bordercolor="#666666"
     borderopacity="1.0"
     inkscape:pageopacity="0.0"
     inkscape:pageshadow="2"
     inkscape:zoom="0.35"
     inkscape:cx="151.4398"
     inkscape:cy="151.43984"
     inkscape:document-units="px"
     inkscape:current-layer="layer1"
     inkscape:document-rotation="0"
     showgrid="false"
     units="px"
     inkscape:showpageshadow="false" />
  <metadata
     id="metadata5">
    <rdf:RDF>
      <cc:Work
         rdf:about="">
        <dc:format>image/svg+xml</dc:format>
        <dc:type
           rdf:resource="http://purl.org/dc/dcmitype/StillImage" />
        <dc:title></dc:title>
      </cc:Work>
    </rdf:RDF>
  </metadata>
  <g
     transform="translate(-39.306554,-108.09821)"
     inkscape:label="Layer 1"
     inkscape:groupmode="layer"
     id="layer1">
    <g
       transform="matrix(0.03548693,0,0,0.03548693,57.863469,110.55942)"
       id="g1288"
       style="fill:#ffffff"
       inkscape:export-xdpi="96"
       inkscape:export-ydpi="96">
      <path
         id="path1284"
         d="m -414.0964,120.02578 c -6.49711,0 -13.18448,-0.52614 -19.91199,-1.58071 -11.84909,-1.85927 -23.84375,-8.0572 -27.23787,-9.91302 l -8.902,-4.8671 9.63791,-3.16946 c 10.53544,-3.464049 16.9443,-5.613325 24.87768,-8.978799 -7.9437,-3.846909 -14.06599,-10.76699 -17.01306,-19.712552 l -2.24213,-6.8066 1.83863,0.280834 c -1.74348,-1.757246 -3.12016,-3.540855 -4.18735,-5.162836 -3.79533,-5.764629 -5.80475,-12.808518 -5.3772,-18.844819 l 0.42184,-5.941163 3.5569,1.377825 c -1.50048,-2.833597 -2.58486,-5.859778 -3.22219,-9.031526 -1.5532,-7.735088 -0.25333,-15.952762 3.6612,-23.1387824 l 3.09841,-5.6878356 4.14379,4.9771403 c 13.10541,15.7429997 29.70466,25.0817227 49.40576,27.8156017 -0.80469,-5.546847 -0.20174,-10.89997 1.79392,-15.698292 2.32351,-5.586952 6.45699,-10.3245286 11.94996,-13.7014595 6.10048,-3.749486 13.49856,-5.5663347 20.83132,-5.1158436 7.77979,0.4779965 14.84317,3.39297964 20.45304,8.4354566 2.73962,-0.7118376 4.75822,-1.4718209 7.48636,-2.4988847 1.64147,-0.617842 3.50301,-1.3193651 5.83226,-2.12176006 l 8.58333,-2.95739454 -5.59727,15.9860018 c 0.3691,-0.03094 0.74966,-0.05734 1.14743,-0.07453 l 9.16564,-0.414956 -5.41731,7.403813 c -0.31064,0.424127 -0.38973,0.544486 -0.49978,0.710694 -0.43673,0.657959 -0.98007,1.476402 -8.41597,11.405473 -1.86156,2.486274 -2.79119,5.724513 -2.61811,9.119789 0.65911,12.902513 -0.92389,24.576219 -4.70776,34.695567 -3.57869,9.573717 -9.12438,17.787943 -16.4812,24.414578 -9.10377,8.19819 -20.71211,13.81151 -34.50414,16.6818 -6.76533,1.40762 -14.03045,2.11373 -21.55005,2.11373 z m 0,0"
         inkscape:connector-curvature="0"
         style="fill:#ffffff;stroke-width:0.293447" />
      <path
         inkscape:connector-curvature="0"
         id="path1286"
         d="M -395.02477,-69.355429 A 127.89745,127.89745 0 0 0 -522.92253,58.542331 127.89745,127.89745 0 0 0 -395.02477,186.44013 127.89745,127.89745 0 0 0 -267.12782,58.542331 127.89745,127.89745 0 0 0 -395.02477,-69.355429 Z m 0,12.53902 a 115.35849,115.35849 0 0 1 11.51591,0.57621 115.35849,115.35849 0 0 1 11.40197,1.72374 115.35849,115.35849 0 0 1 11.17246,2.8527 115.35849,115.35849 0 0 1 10.83224,3.95423 115.35849,115.35849 0 0 1 10.3829,5.01528 115.35849,115.35849 0 0 1 9.83015,6.02707 115.35849,115.35849 0 0 1 9.1796,6.97823 115.35849,115.35849 0 0 1 8.43773,7.85991 115.35849,115.35849 0 0 1 7.6102,8.6632 115.35849,115.35849 0 0 1 6.70751,9.3800101 115.35849,115.35849 0 0 1 5.73695,10.00226 115.35849,115.35849 0 0 1 4.71062,10.5251499 115.35849,115.35849 0 0 1 3.63579,10.94217 115.35849,115.35849 0 0 1 2.52542,11.25163 115.35849,115.35849 0 0 1 1.38999,11.44643 115.35849,115.35849 0 0 1 0.28851,8.16052 115.35849,115.35849 0 0 1 -0.5762,11.51673 115.35849,115.35849 0 0 1 -1.72294,11.40116 115.35849,115.35849 0 0 1 -2.85272,11.17326 115.35849,115.35849 0 0 1 -3.9542,10.831409 115.35849,115.35849 0 0 1 -5.01608,10.38293 115.35849,115.35849 0 0 1 -6.02708,9.83097 115.35849,115.35849 0 0 1 -6.97824,9.17958 115.35849,115.35849 0 0 1 -7.8599,8.43691 115.35849,115.35849 0 0 1 -8.66321,7.61022 115.35849,115.35849 0 0 1 -9.37921,6.70749 115.35849,115.35849 0 0 1 -10.00228,5.73777 115.35849,115.35849 0 0 1 -10.52514,4.70979 115.35849,115.35849 0 0 1 -10.94294,3.63662 115.35849,115.35849 0 0 1 -11.25085,2.52542 115.35849,115.35849 0 0 1 -11.44723,1.38917 115.35849,115.35849 0 0 1 -8.15973,0.28935 115.35849,115.35849 0 0 1 -11.51672,-0.57621 115.35849,115.35849 0 0 1 -11.40197,-1.72374 115.35849,115.35849 0 0 1 -11.17246,-2.85275 115.35849,115.35849 0 0 1 -10.83223,-3.95418 115.35849,115.35849 0 0 1 -10.38291,-5.01528 115.35849,115.35849 0 0 1 -9.83014,-6.02707 115.35849,115.35849 0 0 1 -9.1796,-6.97823 115.35849,115.35849 0 0 1 -8.43773,-7.85991 115.35849,115.35849 0 0 1 -7.6102,-8.6632 115.35849,115.35849 0 0 1 -6.70752,-9.38001 115.35849,115.35849 0 0 1 -5.73695,-10.00231 115.35849,115.35849 0 0 1 -4.71061,-10.52514 115.35849,115.35849 0 0 1 -3.63579,-10.942129 115.35849,115.35849 0 0 1 -2.52543,-11.25163 115.35849,115.35849 0 0 1 -1.38999,-11.44726 115.35849,115.35849 0 0 1 -0.2885,-8.15973 115.35849,115.35849 0 0 1 0.5762,-11.51673 115.35849,115.35849 0 0 1 1.72294,-11.40112 115.35849,115.35849 0 0 1 2.85271,-11.17327 115.35849,115.35849 0 0 1 3.95421,-10.83145 115.35849,115.35849 0 0 1 5.01609,-10.3828899 115.35849,115.35849 0 0 1 6.02706,-9.83097 115.35849,115.35849 0 0 1 6.97824,-9.1795701 115.35849,115.35849 0 0 1 7.85992,-8.43696 115.35849,115.35849 0 0 1 8.6632,-7.61017 115.35849,115.35849 0 0 1 9.3792,-6.70754 115.35849,115.35849 0 0 1 10.00228,-5.73775 115.35849,115.35849 0 0 1 10.52514,-4.71059 115.35849,115.35849 0 0 1 10.94295,-3.63579 115.35849,115.35849 0 0 1 11.25085,-2.52547 115.35849,115.35849 0 0 1 11.44722,-1.38917 115.35849,115.35849 0 0 1 8.16054,-0.2893 z"
         style="fill:#ffffff;stroke-width:0.413765" />
    </g>
  </g>
</svg>
